<?xml version="1.0" encoding="UTF-8"?>
<svg xmlns="http://www.w3.org/2000/svg" xmlns:xlink="http://www.w3.org/1999/xlink" viewBox="0 0 96 96" width="96px" height="96px">
<g id="surface12123689">
<path style=" stroke:none;fill-rule:nonzero;fill:rgb(36.862746%,38.431373%,49.803922%);fill-opacity:1;" d="M 24 8 C 19.621094 8 16 11.621094 16 16 L 16 80 C 16 84.378906 19.621094 88 24 88 L 72 88 C 76.378906 88 80 84.378906 80 80 L 80 32 L 56 8 Z M 24 16 L 52 16 L 52 36 L 72 36 L 72 80 L 24 80 Z M 32 48 L 32 56 L 64 56 L 64 48 Z M 32 64 L 32 72 L 64 72 L 64 64 Z M 32 64 "/>
</g>
</svg>
